<svg width="245" height="150" xmlns="http://www.w3.org/2000/svg">
  <path fill="#42909F" stroke="#42909F" opacity=".957" d="M67.5 17h3l4.5 4.5q3.8 4.7 4 13h-1Q76.6 23.4 69.5 18L54 23l5 10-3-1.5-5-9.5 16.5-5ZM43.5 18q3.8-.7 4.5 1.5l-1 2 1 2-9.5 9.5h-2L31 28.5 43.5 18Zm.5 5v1h2l-2-1Z"/>
  <path fill="#42909F" stroke="#42909F" opacity=".957" d="m67.5 21 3.5 1.5q4.5 4.5 5 13l-1.5-.5L62 34l-4-10 9.5-3ZM30 41l4 1 1 2.5-3.5 1.5-1.5-3.5V41ZM43.5 51l-1 2 1-2ZM81.5 54l.5 23.5h-1l.5-23.5ZM50.5 64l2.5 6.5-1 6.5 4-1v-5h-1.5l.5-1.5.5-4.5 1.5 1.5 1 9-5.5 2.5-2.5-1 .5-13ZM59 65q3.7-1.4 2 4.5v2l-.5 5.5-1.5-1.5V65ZM63.5 65l2.5 1.5q.8 3.8-1.5 4.5l-1.5-.5 1-4-.5-1.5ZM69.5 65q2.5 1.2 1.5 5l3-1.5 1.5-2.5 1.5.5v10l.5 1.5-2.5-1.5-.5-6.5-1.5 4q-2.7 1.1-2-1.5L69.5 70l-.5 7q-4 1.4-2-5.5l2.5-6.5ZM172 129q5.2-2.1 4 2.5h-1q.7-2.6-2-1.5l1 2.5-2 1V129ZM180 129q3-1 2 2l-2 .5 3 .5-.5 2-3-1-1.5.5 2-4.5ZM186 129q5.2-2.1 4 2.5l-.5 2.5q-2.7-1.2-.5-2.5.7-2.6-2-1.5l-.5 4-.5-5ZM197 129q6.4-2.1 4 5-6.4 2.1-4-5ZM204 129q5.2-2.1 4 2.5h-1q.7-2.6-2-1.5l-.5 4-.5-5ZM211.5 129l2 3 2-3 .5 3-2.5 1-1.5-.5-.5 1.5v-5Z"/>
  <path fill="#197F93" stroke="#197F93" opacity=".31" d="m42.5 11-1 2 1-2ZM47.5 12l2.5 1.5-1.5-.5-1-1ZM39.5 13l-4 5-5 4 4-5 5-4ZM42.5 14l1.5.5-5.5 4.5 4-5ZM51.5 14l1 2-1-2ZM47.5 15l5.5 3.5-1.5.5-4-4ZM54.5 16l1.5 3-2-.5.5-2.5ZM68.5 16q5-.5 5.5 3.5L70.5 17q-3 .5-2-1ZM43.5 17l2.5.5-2.5.5L31 28.5l9.5 7.5 3.5-2.5q-3.3 6.8-6.5.5L30 28.5 43.5 17ZM47.5 18l1.5 2.5-2 1 1-2-.5-1.5Z"/>
  <path fill="#197F93" stroke="#197F93" opacity=".31" d="m69.5 18 3 4q-1.5-3.5-3-1l-1.5-.5 2-1-.5-1.5ZM36.5 19l-4 5-5 4 4-5 5-4ZM28.5 22l-3 4 3-4ZM50.5 22l3.5 5.5q-1.5 3-3 0l.5-1.5-3.5-2.5h2l.5-1.5ZM75.5 22l2.5 4.5h-1L75.5 22ZM54.5 23l1.5 2.5-2-1 .5-1.5ZM73.5 23l1 2-1-2ZM23.5 26 21 29.5q-.7 2.3 1.5 1.5l1 2-3.5-2.5 3.5-4.5ZM25.5 28l9.5 7.5-3.5-2.5q-5-1.5-6-5ZM76.5 28l.5 1.5-1.5 2.5-.5-1.5 1.5-2.5ZM78.5 28l.5 2.5-2.5 5.5-.5-2.5 2.5-5.5ZM54.5 29q2.7 1.3.5 2.5 1.1 3.3-1.5 2.5l.5-1.5-1-2 1.5-1.5Z"/>
  <path fill="#197F93" stroke="#197F93" opacity=".31" d="m58.5 30 3.5 1.5h-2q1.3 3.8-2.5 2.5l-1-2 2.5 1-.5-3ZM45.5 32l2.5.5-2.5.5v-1ZM49.5 32l2.5.5-2.5.5v-1ZM25.5 33l4.5 3.5-6.5 9.5 1.5-2.5 4-7-3.5-3.5ZM63.5 34l3.5.5-3.5.5v-1ZM71.5 35l3.5.5-3.5.5v-1ZM36.5 36q4.8 1.6 3.5 8l-4-2.5 3 1v-3L36.5 36ZM26.5 37l-1 2 1-2ZM31.5 37l3.5 3.5-1 1 6 6 .5 7.5 1-2 .5 1.5-2.5 3.5-.5-10.5-7.5-7.5q-2.2-.7-1.5 1.5L23 53l5 1.5-1.5.5-4.5-2.5L30.5 39l1.5-.5-.5-1.5ZM24.5 40l-1 2 1-2ZM158.5 42l.5 28.5h-1l.5-28.5ZM181.5 42l-.5 1.5-.5 1.5-.5-1.5 1.5-1.5ZM185.5 42l2.5 1.5-.5 1.5-.5-2-1.5-1ZM197.5 42l.5 28.5h-1l.5-28.5ZM22.5 43l-1 2 1-2ZM105.5 43q4.8.3 6.5 3.5l-.5 1.5-2-3-4-1v-1ZM20.5 46 19 48.5l-4 7 .5 1.5q-2.6.8-1.5-2.5l6.5-8.5ZM187.5 46l.5 1.5-2 1 1.5-2.5ZM22.5 47l-1 2 1-2ZM180.5 47l1 2-1-2ZM97.5 48l.5 6 4 .5-5 .5.5-7ZM103.5 48l1 2-1-2ZM20.5 50l-1 2 1-2ZM120.5 50l6.5.5-6.5.5v-1ZM136.5 50q5-1 6 2l1.5-.5q-1.7 3.3-3.5-.5-5 1-4-1ZM145.5 50l4.5.5-4.5.5v-1ZM172.5 50q7-1.5 6.5 1.5l-6.5 8.5 1.5-2.5 4-6-5.5-.5-6 7 1.5-2.5 4.5-5.5Z"/>
  <path fill="#197F93" stroke="#197F93" opacity=".31" d="M180 50q6.1-1.7 8 1.5l-.5 19.5-.5-20h-5.5l-.5.5v19h-1V50ZM199 50l6 .5-5 .5 1 3.5h-1l-1-4.5ZM215.5 50l5.5.5-6.5 1.5 1-2ZM117.5 51l1.5.5-3 2-.5 1.5-.5-1.5 2.5-2.5ZM128.5 51l3.5 2.5-.5 1.5-2-3-1-1ZM151.5 51l2.5 1.5 1 3h-1l-1-3.5-1.5-1ZM104.5 52l.5 2-2-.5 1.5-1.5ZM220.5 52l.5 1.5-1.5 2.5-.5-1.5 1.5-2.5ZM18.5 53l2.5 1.5-1.5.5-1-2ZM111.5 53l-1.5 2.5 3 5h-1l-2.5-3.5-1.5-.5 3.5-3.5ZM82.5 54q3.3.8 2.5 5.5h-1q.5-4.7-1.5-5.5ZM121.5 55q3.8-.7 4.5 1.5l-1.5-.5-8 1v-1l5-1ZM144.5 55l2.5.5-4 2-.5 13.5-.5-13.5 2.5-2.5ZM25.5 56l3.5 1.5-1.5.5-2-2ZM31.5 56l3.5 2.5-1.5-.5-2-2ZM132.5 56l.5 14.5h-1l.5-14.5ZM17.5 57l2.5.5-2.5.5v-1ZM148.5 57l.5 13.5h-1l.5-13.5ZM24.5 59l3.5 1.5-1.5.5-2-2ZM36.5 59l1.5 3-4-1.5 1.5.5 1.5-.5-.5-1.5ZM97.5 59l.5 6q5.4 1.5 7-1.5 1.5-4.4-1.5-3.5v-1l2.5 1.5q.8 4.8-2.5 5.5H97l.5-7ZM120.5 59l2.5.5-2.5.5v-1ZM117.5 60l1.5.5-4 3-.5 1.5-.5-1.5 3.5-3.5ZM203.5 60l2.5 5.5h-1l-1.5-5.5ZM83.5 61q-1.6 1.8 1.5 3.5.8 4.3-2 5l.5 1.5q-3.2-1.7.5-3.5.8-4.2-2-5l1.5-1.5ZM173.5 61l4.5 6.5-2-1-2.5-5.5ZM216.5 61l.5 1.5-1.5 2.5-.5-1.5 1.5-2.5ZM166.5 62l4.5 6.5-2-1-2.5-5.5ZM33.5 63l2.5 1.5-1.5.5-1-2ZM48.5 63l1 2-1-2ZM112.5 63l.5 2.5-2 1 1.5-3.5ZM121.5 63l1.5.5-2 .5q-1.3 3.3 3.5 2l1.5-.5q-.7 2.3-4.5 1.5l-1.5-2.5 1.5-1.5ZM51.5 64q4.8-1.3 3.5 2-3.3-1.3-2 3.5h2l-2 2q1.3 5.3-1.5 6.5l.5-1.5q-1.2-4.7 1-6L51.5 64ZM58 64l6 .5-.5 2.5-1.5-.5.5 3.5 1.5-.5q-3 1-2 6l1 2.5q-3.4.8-4.5-2l-4 2v-1l3.5-1.5.5-2.5 2 4 1.5-6.5-1-5.5-3 1.5-.5 2.5-1.5-3.5h2V64ZM67 65l2 .5-1.5 5.5-1.5-3.5 1-2.5ZM74 65l2 .5-2 1V65ZM32.5 66l2.5.5v2L39 80l2.5-1-1 2-2 1-6-15-2 1v-1l2-1ZM114.5 66l2 4 1.5.5-1.5.5q-3.7-1.2-2-5ZM109.5 68l-1 2 1-2ZM125.5 69l3.5 1.5-1.5.5-2-1-2 1v-1l2-1ZM206.5 69l.5 1.5-3.5 6.5-.5-1.5 3.5-6.5ZM69.5 70l.5 6.5h-1l.5-6.5ZM102.5 70l4.5.5-4.5.5v-1ZM212.5 70l.5 1.5-1.5 2.5-.5-1.5 1.5-2.5ZM73.5 72l.5 1.5-2 1 1.5-2.5ZM84.5 72l.5 3.5-3 2q2.8-1.2 2.5-5.5ZM30.5 73l3.5 5.5-2-1-1.5-4.5ZM210.5 75l-1 2 1-2ZM34.5 80l3.5 5.5-2-1-1.5-4.5ZM40.5 86l.5 4-2-.5 1.5-3.5ZM64.5 103q5.4-1.9 4.5 1.5l-1.5-.5q-4 .8-3-1ZM59 104l2 .5-1 3.5 4 .5-5 .5v-5ZM68.5 106l.5 2-3-.5 2.5-1.5ZM172.5 128l2.5.5-2.5.5v-1ZM186.5 128l2.5.5-2.5.5v-1ZM196 128l4 .5-3 .5-.5 5-.5-6ZM204.5 128l2.5.5-2.5.5v-1ZM211.5 128l1 2-1-2ZM215.5 128l1.5.5v5.5q-3.8 1-5-1.5l3-2-.5 1.5q2.6.8 1.5-2.5l-.5-1.5ZM176.5 129l.5 2.5-3.5 2.5-.5-2.5.5-1.5 2.5 1.5.5-2.5ZM190.5 129l.5 2.5-.5 2.5-3.5-1.5 1.5-2.5 1 2 1-3ZM208.5 129l.5 2.5-3.5 2.5-.5-3.5 3 1 .5-2.5ZM179.5 130l2 1 1.5-.5 1 3h-1q.8-2.6-2.5-1.5l-1-2ZM201.5 130l.5 3.5h-1l.5-3.5ZM178.5 132l1 2-1-2Z"/>
  <path fill="#007F98" stroke="#007F98" opacity=".973" d="M43.5 11 55 17.5q-1.3 2.8-2.5.5l-7-4h-3L25 28.5l14 11-.5 3.5Q31.3 34.7 21 31l3.5-5 19-15Z"/>
  <path fill="#007F98" stroke="#007F98" opacity=".973" d="m47.5 24 3.5 2.5 3 6.5q-2.4-1.7-8.5-1l-5 4-2.5-2.5 9.5-9.5ZM27.5 37l.5 1.5-10 15L38 62l-1.5-3-11-6H23l6.5-11 2 4 3.5-1.5-.5-1.5 4.5 4.5.5 10.5 5-7h14l1 1 2-1 3.5 1 1 3.5-1 3.5-2.5 1H49l-8.5 20q-2.2.8-1.5-1.5L35.5 71l-.5 2.5q4 6 5 15h-1l-10-18V68l3.5-1q1.3 2.3 2.5-.5l1-2-21-9L27.5 37ZM35 68l-1 3h1v-3Z"/>
  <path fill="#007F98" stroke="#007F98" opacity=".973" d="m30.5 40 2.5 1.5-2 1 .5-1.5-1-1ZM159 42h6v15.5l1.5.5 6-7 5.5.5-6 8 6 9V71l-7-1-4.5-8-1.5.5v7q-1.4 2.8-6 1.5V42ZM182.5 42l4.5 1 1 2.5-2.5 3.5q-4.7.8-5.5-2.5l2.5-4.5ZM192.5 42q4.5-.5 4.5.5V71q-4.6 1.3-6-1.5v-26l1.5-1.5ZM90 43h14.5l6.5 3.5 1 6-3.5 4.5 3.5 2.5 1 3-2 5.5-3.5 2q-4.7-1.2-6 1h-10L90 69.5V43Zm7 5v7l6-1q4 1 2-4l-1-2h-7Zm0 11v7h7q3-1 2-5l-1-2h-8ZM119.5 51q8.7-1.7 11.5 2.5l1 2V71l-6.5-2q-1.7 2.8-7 2l-3.5-2.5-1-3 3.5-4.5 8.5-2-1.5-4-8.5 1 1.5-4 2-1Zm2.5 12-2 2 2 2q3 1 4-1 1-5-4-3ZM136 51q5.1-1.2 6.5 2 1.5-3.5 8-2l2.5 1q3.9 5.2 2 17.5-1.4 2.8-6 1.5V57.5l-2.5-2.5q-4-.5-4.5 2.5v13q0 1-4.5.5l-1.5-1.5V51ZM181 51h5.5l.5.5V71h-5.5l-.5-.5V51ZM200 51q5.4-1.5 7 1.5l3.5 9.5 5-11 5.5.5-10 23-2.5 2.5q-5.4 1.9-4.5-1.5 3.6-1.9 3-8L200 51ZM82.5 55q2.5 1 1.5 5.5l-2 1 .5-6.5ZM82.5 63q2.3.8 1.5 4.5l-2 1 .5-5.5ZM82.5 70q2.5 1 1.5 5.5l-2 1 .5-6.5ZM61.5 104q6-1.5 7.5 1.5-2.5 3.8-9 2.5l1.5-4Z"/>
  <path fill="#BACCCF" stroke="#BACCCF" opacity=".204" d="m42.5 21 .5 2 3 .5-2.5.5-1-3ZM67.5 23l1.5 2.5-2-1 .5-1.5ZM71.5 23l1 2-1-2ZM57.5 24l1.5 2.5h-3l1.5-2.5ZM59.5 28l-1 2 1-2ZM30.5 43l1 2-1-2ZM48 43l2.5 1 2.5-1 .5 2 1.5-.5.5 1.5.5-2 9.5 2 2-1 4.5 1.5-1 2.5 4.5-3 2.5 1 1 4.5-1 2.5-5.5-2 3 4 2.5 1.5 1 2-2.5 6.5-4-9-.5 2.5 2 5v2L72.5 70l-3-5-1.5-.5 1-1v-8h-1L67 63q-2.7-1.1-2 1.5l-2-1q.7-2.6-2-1.5v-2l3.5 1 1.5-3.5 1-4-6.5-3.5-2 1h-2l-2.5-.5 6.5-2.5 5 2-2-3-5-2-5.5 4.5q.8 2.3-1.5 1.5l-2-1-1.5.5V43Zm20 6q-2 5 2 4 2-5-2-4Zm3 12q-3 4 1 3l-1-3Z"/>
  <path fill="#BACCCF" stroke="#BACCCF" opacity=".204" d="M52.5 60q2.3-.7 1.5 1.5l2.5-1.5q3.8-1 2.5 2h-2q1.5 3.8-1.5 3L53 64l-.5-4ZM49 61q3-1.2 2 2.5l-2-1V61ZM48 65q3.3-1.1 2 3-3.3 1.1-2-3ZM111.5 67l-1 2 1-2ZM77.5 68l1.5 3.5-1.5 3.5v-7ZM66.5 69l.5 3.5h-1l-1-2 1.5-1.5Z"/>
  <path fill="#BACCCF" stroke="#BACCCF" opacity=".204" d="m48.5 70 3 8H54q-1.1 2.7 1.5 2 2-3 8-2l3 2 1.5-3q3.7 1.3 2-4.5h1l1.5 3.5 2-5 .5 5.5-1 2 1.5-.5 3-1 .5 1.5-1 2v4L72.5 92q-3.5 3.5-10 4h-2q-9.2.2-12.5-5.5.8-2.2-1.5-1.5l-1-2 3.5-1.5-1-8 1-3-.5-4.5ZM70 78q-3 6 1 5l1-4-2-1Zm-20 1v3l3 1-1-2q1-3-2-2Zm9 1-2 2h3q1-3-1-2Zm3 0q-1 3 2 2 1-3-2-2Zm-6 2-1 2 6 3 5-3q2 1 1-2l-3 2q-6 1-8-2Zm17 0 2 5v-3q1-3-2-2Zm-13 7v4l3-1q1-5-3-3Zm4 1 1 3 1-2-2-1Z"/>
  <path fill="#BACCCF" stroke="#BACCCF" opacity=".204" d="m57.5 70 1.5 2.5h-1l-.5-2.5ZM53 71q2.7-1.1 2 1.5L54 75l2 .5-2.5 1.5-.5-6ZM62 71h2q-1.5 3.8 1.5 3l1.5 2.5-1.5-.5-3.5-1v-4Z"/>
  <path fill="#F5C303" stroke="#F5C303" opacity=".235" d="m51.5 35 4.5.5-4.5.5v-1ZM45.5 36 43 39.5l-.5 1.5-.5-1.5 3.5-3.5ZM59.5 36l4.5.5-4.5.5v-1ZM67.5 37l4.5.5-4.5.5v-1ZM60.5 39l5.5.5-5.5.5v-1ZM77.5 39l3.5 4.5h-1L77.5 39ZM41.5 42l.5 10.5h-1l.5-10.5ZM53.5 43l2.5.5-2.5.5v-1ZM60.5 44l2.5.5-2.5.5v-1ZM68.5 45l2.5.5-2.5.5v-1ZM81.5 45l.5 8.5h-1l.5-8.5ZM76.5 46q4.2-1.3 2.5 3.5h-1q1.1-3.3-1.5-2.5v-1ZM78.5 52l.5 6.5h-1l.5-6.5ZM78.5 60l.5 10.5h-1l.5-10.5ZM78.5 72l.5 4.5h-1l.5-4.5ZM126.5 74l.5 29.5h-1l.5-29.5ZM171.5 74h7l.5 1.5-9.5 10.5 6.5-7.5 2-3-6.5-.5-9 11 2.5-3.5 6.5-8.5ZM81.5 78l1 4 1.5-.5-3 1.5.5-5ZM191.5 79l1.5.5-2.5 1.5 1-2ZM194.5 79l2.5 1.5q1 5.5-2.5 6.5l-2.5-.5 4-2q1.9-5.4-1.5-4.5v-1ZM41.5 80l1.5 7.5-2 .5.5-8ZM85.5 80q6.8-1.3 9.5 1.5l-1.5.5q-1.7-2.7-8-1v-1ZM95.5 83l1.5 2.5h-1l-.5-2.5ZM78.5 84l.5 5.5h-1l.5-5.5ZM86.5 85l3.5.5-5 2-.5 2.5-.5-2.5 2.5-2.5ZM45.5 86l2.5.5-2.5.5v-1ZM97.5 87l1.5 3.5h-1l-.5-3.5ZM161.5 87l-3 4 3-4ZM168.5 87l1 2-2.5-.5 1.5-1.5ZM145.5 88l1.5.5v15h-1v-14l-.5-1.5ZM195.5 88l1.5.5-3.5 1.5v-1l2-1ZM91.5 89l1.5 3.5h-1l-.5-3.5ZM171.5 89q5 3 6.5 9.5h-1l-5.5-9.5ZM42.5 90l1.5.5-2 .5-.5 23-.5-22.5 1.5-1.5ZM190 90l2 .5-1 1-.5 12.5-.5-14ZM210 90l2 .5-1 1-.5 12.5-.5-14ZM99.5 92l1.5 3.5h-1l-.5-3.5ZM157.5 92l2.5.5-2.5.5v-1ZM163.5 92q4.8.3 6.5 3.5l-2.5-1.5-4-1v-1ZM93.5 94l1.5 3.5h-1l-.5-3.5ZM101.5 97l1.5 3.5h-1l-.5-3.5ZM170.5 97l1.5 2.5h-1l-.5-2.5ZM178.5 100l1.5 3.5h-1l-.5-3.5ZM96.5 101l1.5 3.5h-1l-.5-3.5ZM103.5 102l4.5 6.5-4-3-.5-3.5ZM216.5 103l.5 3.5h-1l.5-3.5ZM119.5 104l.5 1.5-2.5 3.5.5-1.5 1.5-3.5ZM139.5 104l.5 1.5-2.5 3.5.5-1.5 1.5-3.5ZM197.5 104l3.5 4.5-4-3 .5-1.5ZM180.5 105l1.5 4q5.5 1.3 7-2.5l.5-1.5.5 1.5q-1 4.5-7.5 3.5-3.7-1.8-2-5ZM209.5 105l.5 1.5-3 2 2.5-3.5ZM98.5 106l4.5 6.5-4-3-.5-3.5ZM128.5 107q2.3 2.8 7.5 2.5l-4.5.5-3-3ZM148.5 107l3 2 24.5.5-24.5.5-3-3ZM215.5 108l.5 1.5-5 4 4.5-5.5ZM77.5 109l3.5.5-3.5.5v-1ZM109.5 109l6.5.5-6.5.5v-1ZM124 109l3 1.5q-.7 2.3 1.5 1.5l1 2-3.5-2.5-.5-1.5-7 5v-1l5.5-3.5V109ZM195.5 109q2.5 4.5 8.5 5.5l-2.5.5-6-5-4.5 3.5 4.5-4.5ZM202.5 109l3.5.5-3.5.5v-1ZM66.5 110l3.5.5-3.5.5v-1ZM55.5 111l3.5.5-3.5.5v-1ZM143.5 111l-2 3-3 1v-1l5-3ZM146.5 111l3.5 2.5-1.5-.5-2-2ZM106.5 114l2.5.5-2.5.5v-1ZM42.5 115l4.5 3.5-1.5.5-3-4ZM85.5 115l4.5.5-4.5.5v-1ZM74.5 116l4.5.5-4.5.5v-1ZM63.5 117l3.5.5-3.5.5v-1ZM132.5 117q3.8-.7 4.5 1.5l-1.5-.5q-3.7-.7-4.5 1.5-.7 3.8 1.5 4.5l4-1-1 2q-4.7.8-5.5-2.5-.7-4.7 2.5-5.5ZM141.5 117q3.8-.7 4.5 1.5l-1.5-.5q-3.7-.7-4.5 1.5-.7 3.8 1.5 4.5l4-1-1 2q-4.7.8-5.5-2.5-.7-4.7 2.5-5.5ZM204.5 117q4.8-.7 5.5 2.5.8 4.8-2.5 5.5-3.7.8-4.5-1.5l1.5.5q3.8.8 4.5-1.5.8-3.7-1.5-4.5l-4 1 1-2ZM52.5 118l3.5.5-3.5.5v-1ZM65.5 119l-1.5 2.5-.5 2.5-.5-2.5 2.5-2.5ZM69.5 119l1.5 2.5h-1l-.5-2.5ZM74.5 119l-1.5 2.5-.5 2.5-.5-2.5 2.5-2.5ZM78.5 119l1.5 2.5h-1l-.5-2.5ZM70.5 123l.5 1.5-2 1 1.5-2.5ZM79.5 124l-1 2 1-2Z"/>
  <path fill="#F7C203" stroke="#F7C203" opacity=".961" d="m49.5 35 24 3 6.5 4.5 1 2V83l3.5-2h8l2.5 1 8 21.5 4.5 5.5 8 1 3.5-2.5 1-2V77l5.5-2 .5 28.5 3.5 5.5 6 1 3.5-2.5 1-2v-14l1.5-1.5 4.5-1v14.5l3.5 5.5 2 1h24l-.5-1.5q-1.2-10.3-7.5-15.5l-9.5-1.5L171.5 75l6.5.5-11 13q6.4.1 8 5l7.5 16.5q6.5 1 7.5-3.5 2.5-5.5 1-15l1.5-1.5 4.5-1v16.5l3.5 3.5 5 1 4.5-3.5q2.5-5.5 1-15l1.5-1.5 4.5-1-1 18.5-5.5 6.5-6 1q-6.1-1.4-9-6-2.2 4.8-8 6h-34l-7.5-4.5q.7-2.6-2-1.5l-2.5 4q-2.3 2.7-8 2l-6.5-3-1.5-3q-2.2-.7-1.5 1.5-3.4 6.1-14.5 4.5-6.6-.9-9.5-5.5L90 85q-4.7-1-6 2.5L94 115l-46.5 4-5.5-4.5v-23l1.5-.5 4.5-1v22h10.5l1-1 21-1 5.5-1.5-7-16V46l-31-3v6.5l-1.5.5-4 2-.5-10.5 4.5-5.5 3-1ZM61 39v1h5l-5-1Z"/>
  <path fill="#F7C203" stroke="#F7C203" opacity=".961" d="m47.5 67 .5 19-6 1v-8.5L47.5 67ZM193.5 79l2.5 1q1.3 4.6-1.5 6-4.4 1.5-3.5-1.5l-1-3 3.5-2.5ZM132.5 118q3.8-.7 4.5 1.5.8 3.8-1.5 4.5-3.7.8-4.5-1.5-.7-3.7 1.5-4.5ZM141.5 118q3.8-.7 4.5 1.5.8 3.8-1.5 4.5-3.7.8-4.5-1.5-.7-3.7 1.5-4.5ZM204.5 118q3.8-.7 4.5 1.5.8 3.8-1.5 4.5-3.7.8-4.5-1.5-.7-3.7 1.5-4.5ZM66.5 119l3.5 1.5 1 2-2.5 3.5q-3.7.8-4.5-1.5-.7-4.7 2.5-5.5ZM75.5 119l3.5 1.5 1 3q-.7 3.3-5.5 2.5-2.2-.7-1.5-4.5l2.5-2.5Z"/>
</svg>
